<?xml version="1.0" encoding="UTF-8" standalone="no"?>
<!-- Generator: Adobe Illustrator 17.0.0, SVG Export Plug-In . SVG Version: 6.00 Build 0)  -->

<svg
   version="1.1"
   id="Layer_1"
   x="0px"
   y="0px"
   width="550.31"
   height="598.38"
   viewBox="0 0 550.31 598.38"
   xml:space="preserve"
   sodipodi:docname="logo.svg"
   inkscape:export-filename="/home/jthoren/code/org.bibcal.www/resources/public/logo.png"
   inkscape:export-xdpi="10.267723"
   inkscape:export-ydpi="10.267723"
   inkscape:version="1.1.1 (3bf5ae0d25, 2021-09-20)"
   xmlns:inkscape="http://www.inkscape.org/namespaces/inkscape"
   xmlns:sodipodi="http://sodipodi.sourceforge.net/DTD/sodipodi-0.dtd"
   xmlns="http://www.w3.org/2000/svg"
   xmlns:svg="http://www.w3.org/2000/svg"><defs
   id="defs177" /><sodipodi:namedview
   id="namedview175"
   pagecolor="#ffffff"
   bordercolor="#666666"
   borderopacity="1.0"
   inkscape:pageshadow="2"
   inkscape:pageopacity="0.0"
   inkscape:pagecheckerboard="0"
   showgrid="false"
   inkscape:zoom="0.46"
   inkscape:cx="276.08696"
   inkscape:cy="404.34783"
   inkscape:window-width="1920"
   inkscape:window-height="1177"
   inkscape:window-x="0"
   inkscape:window-y="23"
   inkscape:window-maximized="1"
   inkscape:current-layer="Layer_1" />
<style
   type="text/css"
   id="style102">
	.st0{fill:#DDB567;}
	.st1{fill:#0038B8;}
</style>






<g
   id="g120"
   transform="translate(-724.84,-595.1)"
   inkscape:export-filename="/home/jthoren/code/org.bibcal.www/resources/public/logo.png"
   inkscape:export-xdpi="10.267723"
   inkscape:export-ydpi="10.267723">
	<g
   id="g118">
		<path
   class="st1"
   d="m 877.42,643.16 v 32.76 h 60.98 v -32.76 z m 204.56,0 v 32.76 h 60.98 v -32.76 z m 120.12,0 h -17.84 v 32.76 h 17.84 c 22.22,0 40.3,18.08 40.3,40.3 v 404.2 c 0,22.22 -18.08,40.3 -40.3,40.3 h -92.96 l -73.25,32.76 h 166.2 c 40.29,0 73.06,-32.78 73.06,-73.06 v -404.2 c 0.01,-40.29 -32.77,-73.06 -73.05,-73.06 z m -404.2,517.56 c -22.23,0 -40.3,-18.08 -40.3,-40.3 v -404.2 c 0,-22.22 18.08,-40.3 40.3,-40.3 h 38.21 V 643.16 H 797.9 c -40.29,0 -73.06,32.78 -73.06,73.06 v 404.2 c 0,40.29 32.78,73.06 73.06,73.06 h 166.2 l -73.25,-32.76 z M 979.7,643.16 v 32.76 h 60.98 v -32.76 z"
   id="path116" />
	</g>
</g>
<g
   id="g126"
   transform="translate(-724.84,-595.1)"
   inkscape:export-filename="/home/jthoren/code/org.bibcal.www/resources/public/logo.png"
   inkscape:export-xdpi="10.267723"
   inkscape:export-ydpi="10.267723">
	<g
   id="g124">
		<rect
   x="741.21997"
   y="782.15997"
   class="st1"
   width="517.56"
   height="32.759998"
   id="rect122" />
	</g>
</g>
<g
   id="g146"
   transform="translate(-724.84,-595.1)"
   inkscape:export-filename="/home/jthoren/code/org.bibcal.www/resources/public/logo.png"
   inkscape:export-xdpi="10.267723"
   inkscape:export-ydpi="10.267723">
	<g
   id="g144">
		<g
   id="g130">
			<path
   class="st1"
   d="m 846.58,735.3 c -9.05,0 -16.38,-7.33 -16.38,-16.38 V 611.48 c 0,-9.05 7.33,-16.38 16.38,-16.38 9.05,0 16.38,7.33 16.38,16.38 v 107.45 c 0,9.04 -7.33,16.37 -16.38,16.37 z"
   id="path128" />
		</g>
		<g
   id="g134">
			<path
   class="st1"
   d="m 948.86,735.3 c -9.05,0 -16.38,-7.33 -16.38,-16.38 V 611.48 c 0,-9.05 7.33,-16.38 16.38,-16.38 9.05,0 16.38,7.33 16.38,16.38 v 107.45 c 0,9.04 -7.33,16.37 -16.38,16.37 z"
   id="path132" />
		</g>
		<g
   id="g138">
			<path
   class="st1"
   d="m 1051.14,735.3 c -9.05,0 -16.38,-7.33 -16.38,-16.38 V 611.48 c 0,-9.05 7.33,-16.38 16.38,-16.38 9.05,0 16.38,7.33 16.38,16.38 v 107.45 c 0,9.04 -7.33,16.37 -16.38,16.37 z"
   id="path136" />
		</g>
		<g
   id="g142">
			<path
   class="st1"
   d="m 1153.42,735.3 c -9.05,0 -16.38,-7.33 -16.38,-16.38 V 611.48 c 0,-9.05 7.33,-16.38 16.38,-16.38 9.05,0 16.38,7.33 16.38,16.38 v 107.45 c 0,9.04 -7.33,16.37 -16.38,16.37 z"
   id="path140" />
		</g>
	</g>
</g>
<polygon
   class="st0"
   points="848.09,1070.86 972.6,1182.93 821.86,1115.51 821.86,935.49 848.09,948.77 "
   id="polygon148"
   transform="translate(-724.84,-595.1)"
   inkscape:export-filename="/home/jthoren/code/org.bibcal.www/resources/public/logo.png"
   inkscape:export-xdpi="10.267723"
   inkscape:export-ydpi="10.267723" />
<polygon
   class="st0"
   points="1151.91,1070.86 1027.4,1182.93 1178.14,1115.51 1178.14,935.49 1151.91,948.77 "
   id="polygon150"
   transform="translate(-724.84,-595.1)"
   inkscape:export-filename="/home/jthoren/code/org.bibcal.www/resources/public/logo.png"
   inkscape:export-xdpi="10.267723"
   inkscape:export-ydpi="10.267723" />
<polygon
   class="st0"
   points="996.18,994.98 996.18,1009.78 856.03,887.14 856.03,872.34 "
   id="polygon152"
   transform="translate(-724.84,-595.1)"
   inkscape:export-filename="/home/jthoren/code/org.bibcal.www/resources/public/logo.png"
   inkscape:export-xdpi="10.267723"
   inkscape:export-ydpi="10.267723" />
<polygon
   class="st0"
   points="1143.97,872.34 1143.97,887.14 1003.82,1009.77 1003.82,994.98 "
   id="polygon154"
   transform="translate(-724.84,-595.1)"
   inkscape:export-filename="/home/jthoren/code/org.bibcal.www/resources/public/logo.png"
   inkscape:export-xdpi="10.267723"
   inkscape:export-ydpi="10.267723" />
<g
   id="g166"
   transform="translate(-724.84,-595.1)"
   inkscape:export-filename="/home/jthoren/code/org.bibcal.www/resources/public/logo.png"
   inkscape:export-xdpi="10.267723"
   inkscape:export-ydpi="10.267723">
	<g
   id="g164">
		<g
   id="g158">
			<polygon
   class="st0"
   points="996.18,1018.28 996.18,1193.48 856.03,1067.33 856.03,895.64 "
   id="polygon156" />
		</g>
		<g
   id="g162">
			<polygon
   class="st0"
   points="1003.82,1018.28 1003.82,1193.48 1143.97,1067.33 1143.97,895.64 "
   id="polygon160" />
		</g>
	</g>
</g>
<polygon
   class="st0"
   points="949.23,911.54 971.74,952.7 1016.56,963.86 994.6,922.51 "
   id="polygon168"
   transform="translate(-724.84,-595.1)"
   inkscape:export-filename="/home/jthoren/code/org.bibcal.www/resources/public/logo.png"
   inkscape:export-xdpi="10.267723"
   inkscape:export-ydpi="10.267723" />
<polygon
   class="st0"
   points="1000.87,857.8 993.19,891.69 1014.73,908.01 1022.27,873.85 "
   id="polygon170"
   transform="translate(-724.84,-595.1)"
   inkscape:export-filename="/home/jthoren/code/org.bibcal.www/resources/public/logo.png"
   inkscape:export-xdpi="10.267723"
   inkscape:export-ydpi="10.267723" />
<polygon
   class="st0"
   points="1025.34,862.87 1029.91,837.08 1050.77,837.08 1045.83,861.78 "
   id="polygon172"
   transform="translate(-724.84,-595.1)"
   inkscape:export-filename="/home/jthoren/code/org.bibcal.www/resources/public/logo.png"
   inkscape:export-xdpi="10.267723"
   inkscape:export-ydpi="10.267723" />
</svg>
